<svg width="151" height="179" viewBox="0 0 151 179" fill="none" xmlns="http://www.w3.org/2000/svg">
<path d="M82.0927 30C56.2303 30 35 51.0373 35 77.0927V150.241C35 152.364 36.351 154.294 38.281 155.066C40.2111 155.838 42.5271 155.452 44.0711 153.908L61.2484 136.731L78.4256 153.908C80.5486 156.031 83.8297 156.031 85.7597 153.908L102.937 136.731L120.114 153.908C121.079 154.873 122.43 155.452 123.781 155.452C124.36 155.452 125.132 155.259 125.711 155.066C127.641 154.294 128.992 152.364 128.992 150.241V77.0927C129.185 51.0373 107.955 30 82.0927 30ZM71.6705 97.937H56.0373V77.0927H66.4594V87.5148H71.6705V97.937ZM97.7259 97.937H82.0927V77.0927H92.5148V87.5148H97.7259V97.937Z" fill="#C8AEE9"/>
<rect x="56" y="77" width="16" height="21" fill="#C8AEE9"/>
<rect x="82" y="77" width="16" height="21" fill="#C8AEE9"/>
<path d="M78.4829 146.599L94.937 130.145L111.407 146.615C112.552 147.76 114.154 148.452 115.781 148.452C116.525 148.452 117.421 148.217 118.028 148.014L118.055 148.005L118.083 147.994C120.383 147.074 121.992 144.782 121.992 142.241V69.097C122.188 42.4809 100.502 21 74.0927 21C47.6807 21 26 42.4823 26 69.0927V142.241C26 144.782 27.6089 147.074 29.9097 147.994C32.1898 148.906 34.9355 148.458 36.7782 146.615L53.2484 130.145L69.7185 146.615C72.2065 149.103 76.1362 149.159 78.4829 146.599ZM58.4594 80.5148H62.6705V88.937H49.0373V70.0927H57.4594V79.5148V80.5148H58.4594ZM84.5148 80.5148H88.7259V88.937H75.0927V70.0927H83.5148V79.5148V80.5148H84.5148Z" stroke="black" stroke-opacity="0.6" stroke-width="2"/>
</svg>
