<svg width="656" height="179" viewBox="0 0 656 179" fill="none" xmlns="http://www.w3.org/2000/svg">
<path d="M586.093 30C560.23 30 539 51.0373 539 77.0927V150.241C539 152.364 540.351 154.294 542.281 155.066C544.211 155.838 546.527 155.452 548.071 153.908L565.248 136.731L582.426 153.908C584.549 156.031 587.83 156.031 589.76 153.908L606.937 136.731L624.114 153.908C625.079 154.873 626.43 155.452 627.781 155.452C628.36 155.452 629.132 155.259 629.711 155.066C631.641 154.294 632.992 152.364 632.992 150.241V77.0927C633.185 51.0373 611.955 30 586.093 30Z" fill="#C8AEE9"/>
<path d="M582.483 146.599L598.937 130.145L615.407 146.615C616.552 147.76 618.154 148.452 619.781 148.452C620.525 148.452 621.421 148.217 622.028 148.014L622.055 148.005L622.083 147.994C624.383 147.074 625.992 144.782 625.992 142.241V69.0959C626.187 42.4803 604.502 21 578.093 21C551.681 21 530 42.4823 530 69.0927V142.241C530 144.782 531.609 147.074 533.91 147.994C536.19 148.906 538.935 148.458 540.778 146.615L557.248 130.145L573.719 146.615C576.206 149.103 580.136 149.159 582.483 146.599ZM562.459 80.5148H566.671V88.937H553.037V70.0927H561.459V79.5148V80.5148H562.459ZM588.515 80.5148H592.726V88.937H579.093V70.0927H587.515V79.5148V80.5148H588.515Z" stroke="black" stroke-opacity="0.6" stroke-width="2"/>
<path d="M400.093 30C374.23 30 353 51.0373 353 77.0927V150.241C353 152.364 354.351 154.294 356.281 155.066C358.211 155.838 360.527 155.452 362.071 153.908L379.248 136.731L396.426 153.908C398.549 156.031 401.83 156.031 403.76 153.908L420.937 136.731L438.114 153.908C439.079 154.873 440.43 155.452 441.781 155.452C442.36 155.452 443.132 155.259 443.711 155.066C445.641 154.294 446.992 152.364 446.992 150.241V77.0927C447.185 51.0373 425.955 30 400.093 30Z" fill="#AEE9E6"/>
<path d="M412.483 146.599L428.937 130.145L445.407 146.615C446.552 147.76 448.154 148.452 449.781 148.452C450.525 148.452 451.421 148.217 452.028 148.014L452.055 148.005L452.083 147.994C454.383 147.074 455.992 144.782 455.992 142.241V69.0959C456.187 42.4803 434.502 21 408.093 21C381.681 21 360 42.4823 360 69.0927V142.241C360 144.782 361.609 147.074 363.91 147.994C366.19 148.906 368.935 148.458 370.778 146.615L387.248 130.145L403.719 146.615C406.206 149.103 410.136 149.159 412.483 146.599ZM392.459 80.5148H396.671V88.937H383.037V70.0927H391.459V79.5148V80.5148H392.459ZM418.515 80.5148H422.726V88.937H409.093V70.0927H417.515V79.5148V80.5148H418.515Z" stroke="black" stroke-opacity="0.6" stroke-width="2"/>
<path d="M246.093 14C220.23 14 199 35.0373 199 61.0927V134.241C199 136.364 200.351 138.294 202.281 139.066C204.211 139.838 206.527 139.452 208.071 137.908L225.248 120.731L242.426 137.908C244.549 140.031 247.83 140.031 249.76 137.908L266.937 120.731L284.114 137.908C285.079 138.873 286.43 139.452 287.781 139.452C288.36 139.452 289.132 139.259 289.711 139.066C291.641 138.294 292.992 136.364 292.992 134.241V61.0927C293.185 35.0373 271.955 14 246.093 14Z" fill="#E9D8AE"/>
<path d="M242.483 146.599L258.937 130.145L275.407 146.615C276.552 147.76 278.154 148.452 279.781 148.452C280.525 148.452 281.421 148.217 282.028 148.014L282.055 148.005L282.083 147.994C284.383 147.074 285.992 144.782 285.992 142.241V69.0959C286.187 42.4803 264.502 21 238.093 21C211.681 21 190 42.4823 190 69.0927V142.241C190 144.782 191.609 147.074 193.91 147.994C196.19 148.906 198.935 148.458 200.778 146.615L217.248 130.145L233.719 146.615C236.206 149.103 240.136 149.159 242.483 146.599ZM222.459 80.5148H226.671V88.937H213.037V70.0927H221.459V79.5148V80.5148H222.459ZM248.515 80.5148H252.726V88.937H239.093V70.0927H247.515V79.5148V80.5148H248.515Z" stroke="black" stroke-opacity="0.6" stroke-width="2"/>
<path d="M76.0927 30C50.2303 30 29 51.0373 29 77.0927V150.241C29 152.364 30.351 154.294 32.281 155.066C34.2111 155.838 36.5271 155.452 38.0711 153.908L55.2484 136.731L72.4256 153.908C74.5486 156.031 77.8297 156.031 79.7597 153.908L96.937 136.731L114.114 153.908C115.079 154.873 116.43 155.452 117.781 155.452C118.36 155.452 119.132 155.259 119.711 155.066C121.641 154.294 122.992 152.364 122.992 150.241V77.0927C123.185 51.0373 101.955 30 76.0927 30Z" fill="#E9AEAE"/>
<path d="M72.4829 146.599L88.937 130.145L105.407 146.615C106.552 147.76 108.154 148.452 109.781 148.452C110.525 148.452 111.421 148.217 112.028 148.014L112.055 148.005L112.083 147.994C114.383 147.074 115.992 144.782 115.992 142.241V69.0959C116.187 42.4803 94.5018 21 68.0927 21C41.6807 21 20 42.4823 20 69.0927V142.241C20 144.782 21.6089 147.074 23.9097 147.994C26.1898 148.906 28.9355 148.458 30.7782 146.615L47.2484 130.145L63.7185 146.615C66.2065 149.103 70.1363 149.159 72.4829 146.599ZM52.4594 80.5148H56.6705V88.937H43.0373V70.0927H51.4594V79.5148V80.5148H52.4594ZM78.5148 80.5148H82.7259V88.937H69.0927V70.0927H77.5148V79.5148V80.5148H78.5148Z" stroke="black" stroke-opacity="0.6" stroke-width="2"/>
</svg>
